<svg width="38" height="38" viewBox="0 0 38 38" fill="none" xmlns="http://www.w3.org/2000/svg">
<g id="ic:round-email">
<path id="Vector" d="M31.6667 6.33331H6.33332C4.59166 6.33331 3.18249 7.75831 3.18249 9.49998L3.16666 28.5C3.16666 30.2416 4.59166 31.6666 6.33332 31.6666H31.6667C33.4083 31.6666 34.8333 30.2416 34.8333 28.5V9.49998C34.8333 7.75831 33.4083 6.33331 31.6667 6.33331ZM31.0333 13.0625L19.8392 20.0608C19.3325 20.3775 18.6675 20.3775 18.1608 20.0608L6.96666 13.0625C6.80789 12.9734 6.66886 12.8529 6.55798 12.7085C6.4471 12.5641 6.36667 12.3987 6.32157 12.2223C6.27646 12.0459 6.26762 11.8622 6.29557 11.6823C6.32352 11.5024 6.38769 11.33 6.48419 11.1756C6.58068 11.0212 6.7075 10.888 6.85697 10.7841C7.00644 10.6801 7.17545 10.6075 7.35377 10.5708C7.5321 10.534 7.71602 10.5338 7.89442 10.5702C8.07281 10.6066 8.24197 10.6788 8.39166 10.7825L19 17.4166L29.6083 10.7825C29.758 10.6788 29.9272 10.6066 30.1056 10.5702C30.284 10.5338 30.4679 10.534 30.6462 10.5708C30.8245 10.6075 30.9935 10.6801 31.143 10.7841C31.2925 10.888 31.4193 11.0212 31.5158 11.1756C31.6123 11.33 31.6765 11.5024 31.7044 11.6823C31.7324 11.8622 31.7235 12.0459 31.6784 12.2223C31.6333 12.3987 31.5529 12.5641 31.442 12.7085C31.3311 12.8529 31.1921 12.9734 31.0333 13.0625Z" fill="black"/>
</g>
</svg>
