<svg width="68" height="45" viewBox="0 0 68 45" fill="none" xmlns="http://www.w3.org/2000/svg">
<path d="M4.5625 22.8125V35.9375C4.5625 36.5177 4.33203 37.0741 3.9218 37.4843C3.51156 37.8945 2.95516 38.125 2.375 38.125C1.79484 38.125 1.23844 37.8945 0.828204 37.4843C0.417968 37.0741 0.1875 36.5177 0.1875 35.9375V22.8125C0.1875 22.2323 0.417968 21.6759 0.828204 21.2657C1.23844 20.8555 1.79484 20.625 2.375 20.625C2.95516 20.625 3.51156 20.8555 3.9218 21.2657C4.33203 21.6759 4.5625 22.2323 4.5625 22.8125ZM11.125 14.0625C10.5448 14.0625 9.98844 14.293 9.5782 14.7032C9.16797 15.1134 8.9375 15.6698 8.9375 16.25V42.5C8.9375 43.0802 9.16797 43.6366 9.5782 44.0468C9.98844 44.457 10.5448 44.6875 11.125 44.6875C11.7052 44.6875 12.2616 44.457 12.6718 44.0468C13.082 43.6366 13.3125 43.0802 13.3125 42.5V16.25C13.3125 15.6698 13.082 15.1134 12.6718 14.7032C12.2616 14.293 11.7052 14.0625 11.125 14.0625ZM19.875 11.875C19.2948 11.875 18.7384 12.1055 18.3282 12.5157C17.918 12.9259 17.6875 13.4823 17.6875 14.0625V42.5C17.6875 43.0802 17.918 43.6366 18.3282 44.0468C18.7384 44.457 19.2948 44.6875 19.875 44.6875C20.4552 44.6875 21.0116 44.457 21.4218 44.0468C21.832 43.6366 22.0625 43.0802 22.0625 42.5V14.0625C22.0625 13.4823 21.832 12.9259 21.4218 12.5157C21.0116 12.1055 20.4552 11.875 19.875 11.875ZM28.625 3.125C28.0448 3.125 27.4884 3.35547 27.0782 3.7657C26.668 4.17594 26.4375 4.73234 26.4375 5.3125V42.5C26.4375 43.0802 26.668 43.6366 27.0782 44.0468C27.4884 44.457 28.0448 44.6875 28.625 44.6875C29.2052 44.6875 29.7616 44.457 30.1718 44.0468C30.582 43.6366 30.8125 43.0802 30.8125 42.5V5.3125C30.8125 4.73234 30.582 4.17594 30.1718 3.7657C29.7616 3.35547 29.2052 3.125 28.625 3.125ZM58.9328 19.0773C58.0527 13.9984 55.4072 9.39344 51.4631 6.07467C47.519 2.7559 42.5296 0.936544 37.375 0.9375H36.2812C35.9912 0.9375 35.713 1.05273 35.5078 1.25785C35.3027 1.46297 35.1875 1.74117 35.1875 2.03125V43.5938C35.1875 43.8838 35.3027 44.162 35.5078 44.3671C35.713 44.5723 35.9912 44.6875 36.2812 44.6875H54.659C61.6535 44.6875 67.5844 39.2953 67.9781 32.3117C68.1416 29.4169 67.3431 26.5494 65.707 24.1556C64.071 21.7619 61.6893 19.9765 58.9328 19.0773Z" fill="#757575"/>
</svg>
