<svg width="60" height="65" viewBox="0 0 60 65" fill="none" xmlns="http://www.w3.org/2000/svg">
<g id="Logo">
<path id="Vector" fill-rule="evenodd" clip-rule="evenodd" d="M29.5833 0C13.2445 0 0 13.2445 0 29.5833C0 45.9222 13.2445 59.1667 29.5833 59.1667C45.9222 59.1667 59.1667 45.9222 59.1667 29.5833C59.1667 13.2445 45.9222 0 29.5833 0ZM15.5875 24.9683C25.1725 22.294 34.8314 23.64 43.2005 27.2581C43.9195 27.5618 44.7294 27.5691 45.4538 27.2784C46.1781 26.9877 46.7582 26.4225 47.0677 25.706C47.3772 24.9895 47.3909 24.1797 47.106 23.453C46.8211 22.7264 46.2605 22.1418 45.5465 21.8266C36.1686 17.7737 25.1163 16.1673 13.9959 19.2706C13.2518 19.4917 12.6245 19.9963 12.2491 20.6757C11.8737 21.355 11.7804 22.1547 11.9892 22.9023C12.198 23.6498 12.6923 24.2854 13.3654 24.6719C14.0385 25.0584 14.8366 25.1648 15.5875 24.9683ZM16.9956 33.4469C25.2435 31.1483 34.7338 32.586 40.0115 35.8254C40.3427 36.0286 40.7106 36.1646 41.0944 36.2255C41.4781 36.2865 41.8701 36.2713 42.2479 36.1808C42.6258 36.0903 42.9821 35.9262 43.2966 35.698C43.611 35.4698 43.8775 35.1818 44.0806 34.8507C44.2838 34.5195 44.4198 34.1515 44.4808 33.7678C44.5417 33.384 44.5265 32.992 44.436 32.6142C44.3455 32.2363 44.1814 31.88 43.9532 31.5655C43.725 31.2511 43.4371 30.9846 43.1059 30.7815C36.2662 26.5806 25.0482 25.06 15.407 27.7492C14.6677 27.9739 14.0457 28.479 13.6739 29.1564C13.3022 29.8338 13.2103 30.6298 13.4178 31.3741C13.6253 32.1184 14.1159 32.752 14.7845 33.1394C15.4531 33.5267 16.2467 33.6371 16.9956 33.4469ZM18.2707 41.5942C21.6136 40.825 25.3322 40.8161 28.6012 41.325C31.9737 41.8456 34.4054 42.8455 35.4586 43.7094C36.0667 44.206 36.8471 44.4408 37.6283 44.362C38.4094 44.2832 39.1273 43.8974 39.6239 43.2893C40.1206 42.6812 40.3553 41.9008 40.2765 41.1196C40.1978 40.3385 39.8119 39.6206 39.2038 39.124C36.9466 37.2809 33.2872 36.0621 29.5094 35.4763C25.628 34.8758 21.1403 34.864 16.9453 35.8313C16.5557 35.9071 16.1853 36.0606 15.8562 36.2825C15.5271 36.5044 15.2461 36.7903 15.0298 37.1232C14.8135 37.456 14.6664 37.8289 14.5972 38.2198C14.5281 38.6106 14.5383 39.0114 14.6272 39.3983C14.7162 39.7851 14.8821 40.1501 15.1151 40.4715C15.348 40.7928 15.6433 41.064 15.9832 41.2689C16.3232 41.4738 16.7009 41.6082 17.0939 41.6641C17.4869 41.72 17.8871 41.6962 18.2707 41.5942Z" fill="#757575"/>
</g>
</svg>
