<svg width="68" height="68" viewBox="0 0 68 68" fill="none" xmlns="http://www.w3.org/2000/svg">
<g id="ic:round-tiktok">
<path id="Vector" d="M47.0334 16.49C45.0971 14.2787 44.0298 11.4393 44.0301 8.5H35.2751V43.6333C35.209 45.535 34.4067 47.3367 33.0376 48.6582C31.6685 49.9798 29.8396 50.7178 27.9367 50.7167C23.9134 50.7167 20.5701 47.43 20.5701 43.35C20.5701 38.4767 25.2734 34.8217 30.1184 36.3233V27.37C20.3434 26.0667 11.7867 33.66 11.7867 43.35C11.7867 52.785 19.6067 59.5 27.9084 59.5C36.8051 59.5 44.0301 52.275 44.0301 43.35V25.5283C47.5802 28.0779 51.8426 29.4458 56.2134 29.4383V20.6833C56.2134 20.6833 50.8867 20.9383 47.0334 16.49Z" fill="#757575"/>
</g>
</svg>
