<svg width="46" height="46" viewBox="0 0 46 46" fill="none" xmlns="http://www.w3.org/2000/svg">
<g id="mdi:youtube">
<path id="Vector" d="M19.1667 28.75L29.1142 23L19.1667 17.25V28.75ZM41.3234 13.7425C41.5725 14.6434 41.745 15.8509 41.86 17.3842C41.9942 18.9175 42.0517 20.24 42.0517 21.39L42.1667 23C42.1667 27.1975 41.86 30.2834 41.3234 32.2575C40.8442 33.9825 39.7325 35.0942 38.0075 35.5734C37.1067 35.8225 35.4584 35.995 32.9284 36.11C30.4367 36.2442 28.1559 36.3017 26.0475 36.3017L23 36.4167C14.9692 36.4167 9.96671 36.11 7.99254 35.5734C6.26754 35.0942 5.15587 33.9825 4.67671 32.2575C4.42754 31.3567 4.25504 30.1492 4.14004 28.6159C4.00587 27.0825 3.94837 25.76 3.94837 24.61L3.83337 23C3.83337 18.8025 4.14004 15.7167 4.67671 13.7425C5.15587 12.0175 6.26754 10.9059 7.99254 10.4267C8.89337 10.1775 10.5417 10.005 13.0717 9.89004C15.5634 9.75587 17.8442 9.69837 19.9525 9.69837L23 9.58337C31.0309 9.58337 36.0334 9.89004 38.0075 10.4267C39.7325 10.9059 40.8442 12.0175 41.3234 13.7425Z" fill="#C20B0B"/>
</g>
</svg>
